<svg width="1200" height="630" viewBox="0 0 1200 630" fill="none" xmlns="http://www.w3.org/2000/svg">
  <rect width="1200" height="630" fill="#F4EDE1"/>
  <rect x="34" y="34" width="1132" height="562" rx="36" fill="url(#paint0_linear)"/>
  <rect x="76" y="76" width="1048" height="478" rx="28" fill="rgba(255,250,243,0.84)"/>
  <g opacity="0.72">
    <circle cx="1038" cy="126" r="102" fill="#C66B3D" fill-opacity="0.18"/>
    <circle cx="148" cy="524" r="132" fill="#1D6B60" fill-opacity="0.18"/>
  </g>
  <rect x="94" y="94" width="180" height="180" rx="36" fill="#17211F"/>
  <rect x="112" y="112" width="144" height="144" rx="28" fill="url(#paint1_linear)"/>
  <path d="M140 150H176C196.987 150 214 167.013 214 188C214 208.987 196.987 226 176 226H140V150Z" fill="#FFF8EF"/>
  <path d="M162 168H177C188.046 168 197 176.954 197 188C197 199.046 188.046 208 177 208H162V168Z" fill="#1D6B60"/>
  <path d="M148 144L172 144C196.301 144 216 163.699 216 188C216 212.301 196.301 232 172 232L148 232" stroke="#C66B3D" stroke-width="8" stroke-linecap="round"/>
  <text x="322" y="184" fill="#15554D" font-family="Georgia, 'Times New Roman', serif" font-size="38" font-weight="700">BIAU Playlab</text>
  <text x="322" y="256" fill="#17211F" font-family="Georgia, 'Times New Roman', serif" font-size="72" font-weight="700">Indie Game Prototypes</text>
  <text x="322" y="336" fill="#17211F" font-family="Georgia, 'Times New Roman', serif" font-size="72" font-weight="700">Systems Design &amp; Dev Writing</text>
  <text x="322" y="404" fill="#5F6F68" font-family="'Segoe UI', 'PingFang SC', sans-serif" font-size="28">A portfolio blog for project cases, devlogs, and long-form analysis.</text>
  <g>
    <rect x="322" y="456" width="202" height="52" rx="26" fill="#1D6B60" fill-opacity="0.12"/>
    <text x="352" y="489" fill="#15554D" font-family="'Segoe UI', 'PingFang SC', sans-serif" font-size="24" font-weight="700">Godot Prototypes</text>
  </g>
  <g>
    <rect x="540" y="456" width="190" height="52" rx="26" fill="#C66B3D" fill-opacity="0.12"/>
    <text x="571" y="489" fill="#8A4D2D" font-family="'Segoe UI', 'PingFang SC', sans-serif" font-size="24" font-weight="700">Systems Analysis</text>
  </g>
  <g>
    <rect x="746" y="456" width="176" height="52" rx="26" fill="#426E9C" fill-opacity="0.12"/>
    <text x="778" y="489" fill="#355A80" font-family="'Segoe UI', 'PingFang SC', sans-serif" font-size="24" font-weight="700">Dev Writing</text>
  </g>
  <defs>
    <linearGradient id="paint0_linear" x1="60" y1="52" x2="1152" y2="578" gradientUnits="userSpaceOnUse">
      <stop stop-color="#1D6B60"/>
      <stop offset="1" stop-color="#C66B3D"/>
    </linearGradient>
    <linearGradient id="paint1_linear" x1="122" y1="118" x2="248" y2="248" gradientUnits="userSpaceOnUse">
      <stop stop-color="#1D6B60"/>
      <stop offset="1" stop-color="#C66B3D"/>
    </linearGradient>
  </defs>
</svg>
