<svg width="1200" height="720" viewBox="0 0 1200 720" fill="none" xmlns="http://www.w3.org/2000/svg">
  <rect width="1200" height="720" fill="#171126"/>
  <rect x="150" y="36" width="900" height="648" rx="30" fill="#24173A"/>
  <path d="M600 524L654 592L600 664L546 592L600 524Z" fill="#F9F7FF"/>
  <path d="M356 186L406 236L356 286L306 236L356 186Z" fill="#FF8D6F"/>
  <path d="M460 260L510 310L460 360L410 310L460 260Z" fill="#FF8D6F"/>
  <path d="M742 206L792 256L742 306L692 256L742 206Z" fill="#FF8D6F"/>
  <path d="M846 288L896 338L846 388L796 338L846 288Z" fill="#FF8D6F"/>
  <path d="M600 494L600 156" stroke="#7E6BFF" stroke-width="10" stroke-linecap="round"/>
  <path d="M578 478L520 322" stroke="#4AB7FF" stroke-width="8" stroke-linecap="round"/>
  <path d="M622 478L680 322" stroke="#4AB7FF" stroke-width="8" stroke-linecap="round"/>
  <rect x="70" y="74" width="208" height="78" rx="20" fill="#24173A"/>
  <text x="106" y="122" fill="#F2EFFF" font-family="'Segoe UI', sans-serif" font-size="30" font-weight="700">STAGE 01</text>
  <rect x="922" y="74" width="208" height="78" rx="20" fill="#24173A"/>
  <text x="956" y="122" fill="#F2EFFF" font-family="'Segoe UI', sans-serif" font-size="30" font-weight="700">BOMB x 02</text>
</svg>
