<svg width="1200" height="720" viewBox="0 0 1200 720" fill="none" xmlns="http://www.w3.org/2000/svg">
  <rect width="1200" height="720" fill="#151022"/>
  <rect x="54" y="54" width="1092" height="612" rx="28" fill="#23183A"/>
  <path d="M600 552L650 614L600 676L550 614L600 552Z" fill="#FFFFFF"/>
  <path d="M464 152H736L806 270L600 448L394 270L464 152Z" fill="#6A52FF"/>
  <path d="M486 206H714L762 286L600 414L438 286L486 206Z" fill="#F1EDFF"/>
  <circle cx="524" cy="280" r="16" fill="#FF8D6F"/>
  <circle cx="676" cy="280" r="16" fill="#FF8D6F"/>
  <path d="M600 520L600 420" stroke="#4AB7FF" stroke-width="10" stroke-linecap="round"/>
  <path d="M560 516L500 410" stroke="#FFD27D" stroke-width="8" stroke-linecap="round"/>
  <path d="M640 516L700 410" stroke="#FFD27D" stroke-width="8" stroke-linecap="round"/>
  <text x="92" y="118" fill="#F2EFFF" font-family="'Segoe UI', sans-serif" font-size="32" font-weight="700">MINI BOSS / PHASE 02</text>
  <text x="860" y="118" fill="#F2EFFF" font-family="'Segoe UI', sans-serif" font-size="32" font-weight="700">POWER 04</text>
</svg>
