<svg width="1200" height="720" viewBox="0 0 1200 720" fill="none" xmlns="http://www.w3.org/2000/svg">
  <rect width="1200" height="720" fill="#101923"/>
  <rect x="56" y="56" width="1088" height="608" rx="30" fill="#172738"/>
  <rect x="88" y="88" width="322" height="544" rx="24" fill="#1D3347"/>
  <rect x="440" y="88" width="672" height="232" rx="24" fill="#203A52"/>
  <rect x="440" y="350" width="324" height="282" rx="24" fill="#1B3246"/>
  <rect x="788" y="350" width="324" height="282" rx="24" fill="#1B3246"/>
  <path d="M246 188L322 256L246 520L170 256L246 188Z" fill="#F3F8FF"/>
  <text x="120" y="142" fill="#D6EEFF" font-family="'Segoe UI', sans-serif" font-size="30" font-weight="700">SPACEFRAME</text>
  <text x="470" y="142" fill="#D6EEFF" font-family="'Segoe UI', sans-serif" font-size="30" font-weight="700">LOADOUT</text>
  <text x="470" y="426" fill="#D6EEFF" font-family="'Segoe UI', sans-serif" font-size="30" font-weight="700">PRIMARY</text>
  <text x="818" y="426" fill="#D6EEFF" font-family="'Segoe UI', sans-serif" font-size="30" font-weight="700">SECONDARY</text>
  <rect x="472" y="170" width="600" height="22" rx="11" fill="#8ED8FF" fill-opacity="0.2"/>
  <rect x="472" y="216" width="420" height="18" rx="9" fill="#8ED8FF" fill-opacity="0.14"/>
  <rect x="472" y="454" width="260" height="20" rx="10" fill="#41D8C8" fill-opacity="0.22"/>
  <rect x="820" y="454" width="240" height="20" rx="10" fill="#FFD27D" fill-opacity="0.22"/>
</svg>
