<svg width="1200" height="720" viewBox="0 0 1200 720" fill="none" xmlns="http://www.w3.org/2000/svg">
  <rect width="1200" height="720" fill="#08121C"/>
  <rect x="44" y="44" width="1112" height="632" rx="28" fill="#102334"/>
  <circle cx="212" cy="160" r="3" fill="#D6F4FF"/>
  <circle cx="942" cy="118" r="2" fill="#D6F4FF"/>
  <circle cx="1032" cy="232" r="4" fill="#D6F4FF"/>
  <path d="M590 466L632 518L590 590L548 518L590 466Z" fill="#F3FBFF"/>
  <path d="M248 204L296 252L248 300L200 252L248 204Z" fill="#FF8B7A"/>
  <path d="M916 260L964 308L916 356L868 308L916 260Z" fill="#FF8B7A"/>
  <path d="M766 170L804 208L766 246L728 208L766 170Z" fill="#FFD27D"/>
  <path d="M590 426L590 214" stroke="#41D8C8" stroke-width="10" stroke-linecap="round"/>
  <path d="M572 410L492 280" stroke="#8ED8FF" stroke-width="8" stroke-linecap="round"/>
  <path d="M608 410L684 280" stroke="#8ED8FF" stroke-width="8" stroke-linecap="round"/>
  <rect x="78" y="76" width="240" height="66" rx="18" fill="#1A3042"/>
  <rect x="882" y="76" width="240" height="66" rx="18" fill="#1A3042"/>
  <text x="112" y="118" fill="#DDF6FF" font-family="'Segoe UI', sans-serif" font-size="28" font-weight="700">WAVE 04 / 09</text>
  <text x="918" y="118" fill="#DDF6FF" font-family="'Segoe UI', sans-serif" font-size="28" font-weight="700">MISSILE x 03</text>
</svg>
